<svg xmlns="http://www.w3.org/2000/svg" style="display:none">
  <symbol id="dc-i-menu" viewBox="0 0 24 24"><line x1="4" y1="6" x2="20" y2="6"/><line x1="4" y1="12" x2="20" y2="12"/><line x1="4" y1="18" x2="20" y2="18"/></symbol>
  <symbol id="dc-i-search" viewBox="0 0 24 24"><circle cx="11" cy="11" r="7"/><path d="m20 20-3.5-3.5"/></symbol>
  <symbol id="dc-i-radar" viewBox="0 0 24 24"><path d="M12 19v-6"/><path d="M8 13a4 4 0 0 1 8 0"/><path d="M5 10a8 8 0 0 1 14 0"/><path d="M2 7a12 12 0 0 1 20 0"/><circle cx="12" cy="19" r="2"/></symbol>
  <symbol id="dc-i-phone-install" viewBox="0 0 24 24"><rect x="7" y="2.5" width="10" height="19" rx="2.5"/><path d="M10 18h4"/><path d="M12 7v6"/><path d="m9.5 10.5 2.5 2.5 2.5-2.5"/></symbol>
  <symbol id="dc-i-mail" viewBox="0 0 24 24"><rect x="3" y="5" width="18" height="14" rx="2"/><path d="m3 7 9 6 9-6"/></symbol>
  <symbol id="dc-i-sparkle" viewBox="0 0 24 24"><path d="M12 3l1.7 5.3L19 10l-5.3 1.7L12 17l-1.7-5.3L5 10l5.3-1.7L12 3z"/><path d="M19 15l.8 2.2L22 18l-2.2.8L19 21l-.8-2.2L16 18l2.2-.8L19 15z"/></symbol>
  <symbol id="dc-i-x" viewBox="0 0 24 24"><path d="M18 6 6 18"/><path d="m6 6 12 12"/></symbol>
  <symbol id="dc-i-moon" viewBox="0 0 24 24"><path d="M20.5 14.2A8.2 8.2 0 0 1 9.8 3.5 8.8 8.8 0 1 0 20.5 14.2z"/></symbol>
  <symbol id="dc-i-sun" viewBox="0 0 24 24"><circle cx="12" cy="12" r="4"/><path d="M12 2v2"/><path d="M12 20v2"/><path d="m4.9 4.9 1.4 1.4"/><path d="m17.7 17.7 1.4 1.4"/><path d="M2 12h2"/><path d="M20 12h2"/><path d="m4.9 19.1 1.4-1.4"/><path d="m17.7 6.3 1.4-1.4"/></symbol>
  <symbol id="dc-i-home" viewBox="0 0 24 24"><path d="m3 11 9-8 9 8"/><path d="M5 10v10h14V10"/><path d="M10 20v-6h4v6"/></symbol>
  <symbol id="dc-i-message" viewBox="0 0 24 24"><path d="M21 15a4 4 0 0 1-4 4H8l-5 3V7a4 4 0 0 1 4-4h10a4 4 0 0 1 4 4z"/></symbol>
  <symbol id="dc-i-back" viewBox="0 0 24 24"><path d="M19 12H5"/><path d="m12 19-7-7 7-7"/></symbol>
  <symbol id="dc-i-play" viewBox="0 0 24 24"><circle cx="12" cy="12" r="10"/><path d="m10 8 6 4-6 4z"/></symbol>
  <symbol id="dc-i-mic" viewBox="0 0 24 24"><path d="M12 14a4 4 0 0 0 4-4V6a4 4 0 1 0-8 0v4a4 4 0 0 0 4 4z"/><path d="M19 10a7 7 0 0 1-14 0"/><path d="M12 17v4"/><path d="M8 21h8"/></symbol>
  <symbol id="dc-i-user" viewBox="0 0 24 24"><circle cx="12" cy="8" r="4"/><path d="M4 21a8 8 0 0 1 16 0"/></symbol>
  <symbol id="dc-i-note" viewBox="0 0 24 24"><path d="M14 3H6a2 2 0 0 0-2 2v14a2 2 0 0 0 2 2h12a2 2 0 0 0 2-2V9z"/><path d="M14 3v6h6"/><path d="M8 13h8"/><path d="M8 17h5"/></symbol>
  <symbol id="dc-i-bot" viewBox="0 0 24 24"><rect x="5" y="8" width="14" height="10" rx="3"/><path d="M12 8V4"/><circle cx="9" cy="13" r="1"/><circle cx="15" cy="13" r="1"/><path d="M9 18v2"/><path d="M15 18v2"/></symbol>
  <symbol id="dc-i-link" viewBox="0 0 24 24"><path d="M10 13a5 5 0 0 0 7.1 0l2-2a5 5 0 0 0-7.1-7.1l-1.1 1.1"/><path d="M14 11a5 5 0 0 0-7.1 0l-2 2A5 5 0 0 0 12 20.1l1.1-1.1"/></symbol>
  <symbol id="dc-i-headphones" viewBox="0 0 24 24"><path d="M3 14a9 9 0 0 1 18 0"/><path d="M5 14h3v7H5a2 2 0 0 1-2-2v-3a2 2 0 0 1 2-2z"/><path d="M19 14h-3v7h3a2 2 0 0 0 2-2v-3a2 2 0 0 0-2-2z"/></symbol>
  <symbol id="dc-i-book" viewBox="0 0 24 24"><path d="M4 19.5A2.5 2.5 0 0 1 6.5 17H20"/><path d="M4 4.5A2.5 2.5 0 0 1 6.5 2H20v20H6.5A2.5 2.5 0 0 1 4 19.5z"/></symbol>
  <symbol id="dc-i-brain" viewBox="0 0 24 24"><path d="M9 4a3 3 0 0 0-3 3v1a3 3 0 0 0-2 5.2A3.5 3.5 0 0 0 8 19h1"/><path d="M15 4a3 3 0 0 1 3 3v1a3 3 0 0 1 2 5.2A3.5 3.5 0 0 1 16 19h-1"/><path d="M12 4v17"/><path d="M8 9h2"/><path d="M14 9h2"/><path d="M8 14h2"/><path d="M14 14h2"/></symbol>
  <symbol id="dc-i-puzzle" viewBox="0 0 24 24"><path d="M8 3h4v4h3a2 2 0 1 1 0 4h-3v3h3a2 2 0 1 1 0 4h-3v3H8v-3H5a2 2 0 1 1 0-4h3v-3H5a2 2 0 1 1 0-4h3z"/></symbol>
  <symbol id="dc-i-tooth" viewBox="0 0 24 24"><path d="M8.5 3.5c1.2 0 2 .6 3.5.6s2.3-.6 3.5-.6c2 0 3.5 1.6 3.5 4 0 2.8-1.5 4.4-2.2 7.4-.7 3-1.4 5.6-3 5.6-1.2 0-1.1-3.5-1.8-3.5s-.6 3.5-1.8 3.5c-1.6 0-2.3-2.6-3-5.6C6.5 11.9 5 10.3 5 7.5c0-2.4 1.5-4 3.5-4z"/></symbol>
  <symbol id="dc-i-camera" viewBox="0 0 24 24"><path d="M14.5 4 16 7h3a2 2 0 0 1 2 2v9a2 2 0 0 1-2 2H5a2 2 0 0 1-2-2V9a2 2 0 0 1 2-2h3l1.5-3z"/><circle cx="12" cy="13" r="4"/></symbol>
  <symbol id="dc-i-folder" viewBox="0 0 24 24"><path d="M3 7a2 2 0 0 1 2-2h5l2 2h7a2 2 0 0 1 2 2v8a2 2 0 0 1-2 2H5a2 2 0 0 1-2-2z"/></symbol>
  <symbol id="dc-i-globe" viewBox="0 0 24 24"><circle cx="12" cy="12" r="10"/><path d="M2 12h20"/><path d="M12 2a15 15 0 0 1 0 20"/><path d="M12 2a15 15 0 0 0 0 20"/></symbol>
  <symbol id="dc-i-pin" viewBox="0 0 24 24"><path d="M20 10c0 5-8 12-8 12S4 15 4 10a8 8 0 1 1 16 0z"/><circle cx="12" cy="10" r="3"/></symbol>
  <symbol id="dc-i-phone" viewBox="0 0 24 24"><path d="M22 16.9v3a2 2 0 0 1-2.2 2 19.8 19.8 0 0 1-8.6-3.1 19.4 19.4 0 0 1-6-6A19.8 19.8 0 0 1 2.1 4.2 2 2 0 0 1 4.1 2h3a2 2 0 0 1 2 1.7c.1 1 .4 2 .7 2.9a2 2 0 0 1-.4 2.1L8.1 10a16 16 0 0 0 6 6l1.3-1.3a2 2 0 0 1 2.1-.4c.9.3 1.9.6 2.9.7a2 2 0 0 1 1.6 1.9z"/></symbol>
  <symbol id="dc-i-send" viewBox="0 0 24 24"><path d="m22 2-7 20-4-9-9-4z"/><path d="M22 2 11 13"/></symbol>
</svg>
