<?xml version="1.0" encoding="UTF-8"?>
<!--
  DentCast — Centralized SVG Icon Library
  ──────────────────────────────────────────────────────────
  Single source of truth for every UI icon on the site.
  See README.md in this folder for naming, usage, and the
  canonical category mapping.

  Spec for every symbol:
    viewBox      : 0 0 24 24
    fill         : none
    stroke       : currentColor
    stroke-width : 2
    stroke-linecap / linejoin : round

  Reference from any page:
    <svg class="dc-icon" aria-hidden="true">
      <use href="/assets/icons/icons.svg#icon-headphones"/>
    </svg>

  Color is inherited from the host element via currentColor.
  Size is controlled by the host element (width/height in CSS).
-->
<svg xmlns="http://www.w3.org/2000/svg" aria-hidden="true"
     style="position:absolute;width:0;height:0;overflow:hidden">

  <!-- ════════════════════════════════════════════════════════════
       INTERFACE — controls & navigation
  ════════════════════════════════════════════════════════════ -->

  <symbol id="icon-menu" viewBox="0 0 24 24" fill="none" stroke="currentColor" stroke-width="2" stroke-linecap="round" stroke-linejoin="round">
    <line x1="4" y1="6" x2="20" y2="6"/>
    <line x1="4" y1="12" x2="20" y2="12"/>
    <line x1="4" y1="18" x2="20" y2="18"/>
  </symbol>

  <symbol id="icon-search" viewBox="0 0 24 24" fill="none" stroke="currentColor" stroke-width="2" stroke-linecap="round" stroke-linejoin="round">
    <circle cx="11" cy="11" r="7"/>
    <path d="m20 20-3.5-3.5"/>
  </symbol>

  <symbol id="icon-x" viewBox="0 0 24 24" fill="none" stroke="currentColor" stroke-width="2" stroke-linecap="round" stroke-linejoin="round">
    <path d="M18 6 6 18"/>
    <path d="m6 6 12 12"/>
  </symbol>

  <symbol id="icon-back" viewBox="0 0 24 24" fill="none" stroke="currentColor" stroke-width="2" stroke-linecap="round" stroke-linejoin="round">
    <path d="M19 12H5"/>
    <path d="m12 19-7-7 7-7"/>
  </symbol>

  <symbol id="icon-info" viewBox="0 0 24 24" fill="none" stroke="currentColor" stroke-width="2" stroke-linecap="round" stroke-linejoin="round">
    <circle cx="12" cy="12" r="10"/>
    <path d="M12 16v-4"/>
    <path d="M12 8h.01"/>
  </symbol>

  <symbol id="icon-ban" viewBox="0 0 24 24" fill="none" stroke="currentColor" stroke-width="2" stroke-linecap="round" stroke-linejoin="round">
    <circle cx="12" cy="12" r="10"/>
    <path d="m4.9 4.9 14.2 14.2"/>
  </symbol>

  <symbol id="icon-hourglass" viewBox="0 0 24 24" fill="none" stroke="currentColor" stroke-width="2" stroke-linecap="round" stroke-linejoin="round">
    <path d="M6 2h12"/>
    <path d="M6 22h12"/>
    <path d="M7 2v6l5 4-5 4v6"/>
    <path d="M17 2v6l-5 4 5 4v6"/>
  </symbol>

  <!-- ════════════════════════════════════════════════════════════
       INTERFACE — theme & decoration
  ════════════════════════════════════════════════════════════ -->

  <symbol id="icon-moon" viewBox="0 0 24 24" fill="none" stroke="currentColor" stroke-width="2" stroke-linecap="round" stroke-linejoin="round">
    <path d="M20.5 14.2A8.2 8.2 0 0 1 9.8 3.5 8.8 8.8 0 1 0 20.5 14.2z"/>
  </symbol>

  <symbol id="icon-sun" viewBox="0 0 24 24" fill="none" stroke="currentColor" stroke-width="2" stroke-linecap="round" stroke-linejoin="round">
    <circle cx="12" cy="12" r="4"/>
    <path d="M12 2v2"/>
    <path d="M12 20v2"/>
    <path d="m4.9 4.9 1.4 1.4"/>
    <path d="m17.7 17.7 1.4 1.4"/>
    <path d="M2 12h2"/>
    <path d="M20 12h2"/>
    <path d="m4.9 19.1 1.4-1.4"/>
    <path d="m17.7 6.3 1.4-1.4"/>
  </symbol>

  <symbol id="icon-sparkle" viewBox="0 0 24 24" fill="none" stroke="currentColor" stroke-width="2" stroke-linecap="round" stroke-linejoin="round">
    <path d="M12 3l1.7 5.3L19 10l-5.3 1.7L12 17l-1.7-5.3L5 10l5.3-1.7L12 3z"/>
    <path d="M19 15l.8 2.2L22 18l-2.2.8L19 21l-.8-2.2L16 18l2.2-.8L19 15z"/>
  </symbol>

  <!-- ════════════════════════════════════════════════════════════
       INTERFACE — device & install
  ════════════════════════════════════════════════════════════ -->

  <symbol id="icon-phone-install" viewBox="0 0 24 24" fill="none" stroke="currentColor" stroke-width="2" stroke-linecap="round" stroke-linejoin="round">
    <rect x="7" y="2.5" width="10" height="19" rx="2.5"/>
    <path d="M10 18h4"/>
    <path d="M12 7v6"/>
    <path d="m9.5 10.5 2.5 2.5 2.5-2.5"/>
  </symbol>

  <!-- ════════════════════════════════════════════════════════════
       NAVIGATION — place & file
  ════════════════════════════════════════════════════════════ -->

  <symbol id="icon-home" viewBox="0 0 24 24" fill="none" stroke="currentColor" stroke-width="2" stroke-linecap="round" stroke-linejoin="round">
    <path d="m3 11 9-8 9 8"/>
    <path d="M5 10v10h14V10"/>
    <path d="M10 20v-6h4v6"/>
  </symbol>

  <symbol id="icon-globe" viewBox="0 0 24 24" fill="none" stroke="currentColor" stroke-width="2" stroke-linecap="round" stroke-linejoin="round">
    <circle cx="12" cy="12" r="10"/>
    <path d="M2 12h20"/>
    <path d="M12 2a15 15 0 0 1 0 20"/>
    <path d="M12 2a15 15 0 0 0 0 20"/>
  </symbol>

  <symbol id="icon-pin" viewBox="0 0 24 24" fill="none" stroke="currentColor" stroke-width="2" stroke-linecap="round" stroke-linejoin="round">
    <path d="M20 10c0 5-8 12-8 12S4 15 4 10a8 8 0 1 1 16 0z"/>
    <circle cx="12" cy="10" r="3"/>
  </symbol>

  <symbol id="icon-folder" viewBox="0 0 24 24" fill="none" stroke="currentColor" stroke-width="2" stroke-linecap="round" stroke-linejoin="round">
    <path d="M3 7a2 2 0 0 1 2-2h5l2 2h7a2 2 0 0 1 2 2v8a2 2 0 0 1-2 2H5a2 2 0 0 1-2-2z"/>
  </symbol>

  <!-- ════════════════════════════════════════════════════════════
       COMMUNICATION
  ════════════════════════════════════════════════════════════ -->

  <symbol id="icon-mail" viewBox="0 0 24 24" fill="none" stroke="currentColor" stroke-width="2" stroke-linecap="round" stroke-linejoin="round">
    <rect x="3" y="5" width="18" height="14" rx="2"/>
    <path d="m3 7 9 6 9-6"/>
  </symbol>

  <symbol id="icon-phone" viewBox="0 0 24 24" fill="none" stroke="currentColor" stroke-width="2" stroke-linecap="round" stroke-linejoin="round">
    <path d="M22 16.9v3a2 2 0 0 1-2.2 2 19.8 19.8 0 0 1-8.6-3.1 19.4 19.4 0 0 1-6-6A19.8 19.8 0 0 1 2.1 4.2 2 2 0 0 1 4.1 2h3a2 2 0 0 1 2 1.7c.1 1 .4 2 .7 2.9a2 2 0 0 1-.4 2.1L8.1 10a16 16 0 0 0 6 6l1.3-1.3a2 2 0 0 1 2.1-.4c.9.3 1.9.6 2.9.7a2 2 0 0 1 1.6 1.9z"/>
  </symbol>

  <symbol id="icon-message" viewBox="0 0 24 24" fill="none" stroke="currentColor" stroke-width="2" stroke-linecap="round" stroke-linejoin="round">
    <path d="M21 15a4 4 0 0 1-4 4H8l-5 3V7a4 4 0 0 1 4-4h10a4 4 0 0 1 4 4z"/>
  </symbol>

  <symbol id="icon-send" viewBox="0 0 24 24" fill="none" stroke="currentColor" stroke-width="2" stroke-linecap="round" stroke-linejoin="round">
    <path d="m22 2-7 20-4-9-9-4z"/>
    <path d="M22 2 11 13"/>
  </symbol>

  <symbol id="icon-flag" viewBox="0 0 24 24" fill="none" stroke="currentColor" stroke-width="2" stroke-linecap="round" stroke-linejoin="round">
    <path d="M5 21V4"/>
    <path d="M5 4h13l-2 4 2 4H5"/>
  </symbol>

  <symbol id="icon-volume" viewBox="0 0 24 24" fill="none" stroke="currentColor" stroke-width="2" stroke-linecap="round" stroke-linejoin="round">
    <path d="M4 10v4h4l5 4V6l-5 4H4z"/>
    <path d="M16 9a4 4 0 0 1 0 6"/>
    <path d="M19 6a8 8 0 0 1 0 12"/>
  </symbol>

  <!-- ════════════════════════════════════════════════════════════
       MEDIA — actions
  ════════════════════════════════════════════════════════════ -->

  <symbol id="icon-play" viewBox="0 0 24 24" fill="none" stroke="currentColor" stroke-width="2" stroke-linecap="round" stroke-linejoin="round">
    <circle cx="12" cy="12" r="10"/>
    <path d="m10 8 6 4-6 4z"/>
  </symbol>

  <symbol id="icon-pause" viewBox="0 0 24 24" fill="none" stroke="currentColor" stroke-width="2" stroke-linecap="round" stroke-linejoin="round">
    <circle cx="12" cy="12" r="10"/>
    <path d="M10 8v8"/>
    <path d="M14 8v8"/>
  </symbol>

  <symbol id="icon-microphone" viewBox="0 0 24 24" fill="none" stroke="currentColor" stroke-width="2" stroke-linecap="round" stroke-linejoin="round">
    <path d="M12 14a4 4 0 0 0 4-4V6a4 4 0 1 0-8 0v4a4 4 0 0 0 4 4z"/>
    <path d="M19 10a7 7 0 0 1-14 0"/>
    <path d="M12 17v4"/>
    <path d="M8 21h8"/>
  </symbol>

  <symbol id="icon-camera" viewBox="0 0 24 24" fill="none" stroke="currentColor" stroke-width="2" stroke-linecap="round" stroke-linejoin="round">
    <path d="M14.5 4 16 7h3a2 2 0 0 1 2 2v9a2 2 0 0 1-2 2H5a2 2 0 0 1-2-2V9a2 2 0 0 1 2-2h3l1.5-3z"/>
    <circle cx="12" cy="13" r="4"/>
  </symbol>

  <!-- ════════════════════════════════════════════════════════════
       BRAND — content categories (canonical mapping)
       Episodes → icon-headphones
       Studio   → icon-microphone (above)
       Meta Base → icon-node-graph
       Glossary → icon-book
  ════════════════════════════════════════════════════════════ -->

  <symbol id="icon-headphones" viewBox="0 0 24 24" fill="none" stroke="currentColor" stroke-width="2" stroke-linecap="round" stroke-linejoin="round">
    <path d="M3 14a9 9 0 0 1 18 0"/>
    <path d="M5 14h3v7H5a2 2 0 0 1-2-2v-3a2 2 0 0 1 2-2z"/>
    <path d="M19 14h-3v7h3a2 2 0 0 0 2-2v-3a2 2 0 0 0-2-2z"/>
  </symbol>

  <symbol id="icon-node-graph" viewBox="0 0 24 24" fill="none" stroke="currentColor" stroke-width="2" stroke-linecap="round" stroke-linejoin="round">
    <circle cx="12" cy="4.5" r="2.2"/>
    <circle cx="4.5" cy="18.5" r="2.2"/>
    <circle cx="19.5" cy="18.5" r="2.2"/>
    <line x1="10.2" y1="6.2" x2="5.9" y2="16.5"/>
    <line x1="13.8" y1="6.2" x2="18.1" y2="16.5"/>
    <line x1="6.6" y1="18.5" x2="17.4" y2="18.5"/>
  </symbol>

  <symbol id="icon-book" viewBox="0 0 24 24" fill="none" stroke="currentColor" stroke-width="2" stroke-linecap="round" stroke-linejoin="round">
    <path d="M4 19.5A2.5 2.5 0 0 1 6.5 17H20"/>
    <path d="M4 4.5A2.5 2.5 0 0 1 6.5 2H20v20H6.5A2.5 2.5 0 0 1 4 19.5z"/>
  </symbol>

  <symbol id="icon-bot" viewBox="0 0 24 24" fill="none" stroke="currentColor" stroke-width="2" stroke-linecap="round" stroke-linejoin="round">
    <rect x="5" y="8" width="14" height="10" rx="3"/>
    <path d="M12 8V4"/>
    <circle cx="9" cy="13" r="1"/>
    <circle cx="15" cy="13" r="1"/>
    <path d="M9 18v2"/>
    <path d="M15 18v2"/>
  </symbol>

  <symbol id="icon-radar" viewBox="0 0 24 24" fill="none" stroke="currentColor" stroke-width="2" stroke-linecap="round" stroke-linejoin="round">
    <circle cx="12" cy="12" r="9"/>
    <circle cx="12" cy="12" r="5"/>
    <path d="m12 12 7-7"/>
    <path d="M12 12h.01"/>
  </symbol>

  <!-- ════════════════════════════════════════════════════════════
       BRAND — concept icons
  ════════════════════════════════════════════════════════════ -->

  <symbol id="icon-tooth" viewBox="0 0 24 24" fill="none" stroke="currentColor" stroke-width="2" stroke-linecap="round" stroke-linejoin="round">
    <path d="M8.5 3.5c1.2 0 2 .6 3.5.6s2.3-.6 3.5-.6c2 0 3.5 1.6 3.5 4 0 2.8-1.5 4.4-2.2 7.4-.7 3-1.4 5.6-3 5.6-1.2 0-1.1-3.5-1.8-3.5s-.6 3.5-1.8 3.5c-1.6 0-2.3-2.6-3-5.6C6.5 11.9 5 10.3 5 7.5c0-2.4 1.5-4 3.5-4z"/>
  </symbol>

  <symbol id="icon-brain" viewBox="0 0 24 24" fill="none" stroke="currentColor" stroke-width="2" stroke-linecap="round" stroke-linejoin="round">
    <path d="M9 4a3 3 0 0 0-3 3v1a3 3 0 0 0-2 5.2A3.5 3.5 0 0 0 8 19h1"/>
    <path d="M15 4a3 3 0 0 1 3 3v1a3 3 0 0 1 2 5.2A3.5 3.5 0 0 1 16 19h-1"/>
    <path d="M12 4v17"/>
    <path d="M8 9h2"/>
    <path d="M14 9h2"/>
    <path d="M8 14h2"/>
    <path d="M14 14h2"/>
  </symbol>

  <symbol id="icon-puzzle" viewBox="0 0 24 24" fill="none" stroke="currentColor" stroke-width="2" stroke-linecap="round" stroke-linejoin="round">
    <path d="M8 3h4v4h3a2 2 0 1 1 0 4h-3v3h3a2 2 0 1 1 0 4h-3v3H8v-3H5a2 2 0 1 1 0-4h3v-3H5a2 2 0 1 1 0-4h3z"/>
  </symbol>

  <symbol id="icon-user" viewBox="0 0 24 24" fill="none" stroke="currentColor" stroke-width="2" stroke-linecap="round" stroke-linejoin="round">
    <circle cx="12" cy="8" r="4"/>
    <path d="M4 21a8 8 0 0 1 16 0"/>
  </symbol>

  <symbol id="icon-note" viewBox="0 0 24 24" fill="none" stroke="currentColor" stroke-width="2" stroke-linecap="round" stroke-linejoin="round">
    <path d="M14 3H6a2 2 0 0 0-2 2v14a2 2 0 0 0 2 2h12a2 2 0 0 0 2-2V9z"/>
    <path d="M14 3v6h6"/>
    <path d="M8 13h8"/>
    <path d="M8 17h5"/>
  </symbol>

  <symbol id="icon-link" viewBox="0 0 24 24" fill="none" stroke="currentColor" stroke-width="2" stroke-linecap="round" stroke-linejoin="round">
    <path d="M10 13a5 5 0 0 0 7.1 0l2-2a5 5 0 0 0-7.1-7.1l-1.1 1.1"/>
    <path d="M14 11a5 5 0 0 0-7.1 0l-2 2A5 5 0 0 0 12 20.1l1.1-1.1"/>
  </symbol>

  <!-- ════════════════════════════════════════════════════════════
       EDITORIAL — callouts & emphasis
       (new; for migrating emoji used in articles: 💡 ✔ ⚠ ⚡ 🎯 ⭐ 📊 📈 📏 🟦)
  ════════════════════════════════════════════════════════════ -->

  <symbol id="icon-lightbulb" viewBox="0 0 24 24" fill="none" stroke="currentColor" stroke-width="2" stroke-linecap="round" stroke-linejoin="round">
    <path d="M9 18h6"/>
    <path d="M10 22h4"/>
    <path d="M12 2a7 7 0 0 0-4 12.7c.8.8 1 1.5 1 2.3h6c0-.8.2-1.5 1-2.3A7 7 0 0 0 12 2z"/>
  </symbol>

  <symbol id="icon-check" viewBox="0 0 24 24" fill="none" stroke="currentColor" stroke-width="2" stroke-linecap="round" stroke-linejoin="round">
    <path d="m5 12 5 5L20 7"/>
  </symbol>

  <symbol id="icon-check-circle" viewBox="0 0 24 24" fill="none" stroke="currentColor" stroke-width="2" stroke-linecap="round" stroke-linejoin="round">
    <circle cx="12" cy="12" r="10"/>
    <path d="m8 12 3 3 5-6"/>
  </symbol>

  <symbol id="icon-warning" viewBox="0 0 24 24" fill="none" stroke="currentColor" stroke-width="2" stroke-linecap="round" stroke-linejoin="round">
    <path d="M10.3 3.9 2.4 18a2 2 0 0 0 1.7 3h15.8a2 2 0 0 0 1.7-3L13.7 3.9a2 2 0 0 0-3.4 0z"/>
    <path d="M12 9v5"/>
    <path d="M12 18h.01"/>
  </symbol>

  <symbol id="icon-alert-circle" viewBox="0 0 24 24" fill="none" stroke="currentColor" stroke-width="2" stroke-linecap="round" stroke-linejoin="round">
    <circle cx="12" cy="12" r="10"/>
    <path d="M12 8v5"/>
    <path d="M12 16h.01"/>
  </symbol>

  <symbol id="icon-lightning" viewBox="0 0 24 24" fill="none" stroke="currentColor" stroke-width="2" stroke-linecap="round" stroke-linejoin="round">
    <path d="M13 2 4 14h7l-1 8 9-12h-7z"/>
  </symbol>

  <symbol id="icon-target" viewBox="0 0 24 24" fill="none" stroke="currentColor" stroke-width="2" stroke-linecap="round" stroke-linejoin="round">
    <circle cx="12" cy="12" r="9"/>
    <circle cx="12" cy="12" r="5"/>
    <circle cx="12" cy="12" r="1.5" style="fill:currentColor" stroke="none"/>
  </symbol>

  <symbol id="icon-star" viewBox="0 0 24 24" fill="none" stroke="currentColor" stroke-width="2" stroke-linecap="round" stroke-linejoin="round">
    <path d="m12 2 3 7h7l-5.5 4.5L19 21l-7-4.5L5 21l2.5-7.5L2 9h7z"/>
  </symbol>

  <symbol id="icon-chart-bar" viewBox="0 0 24 24" fill="none" stroke="currentColor" stroke-width="2" stroke-linecap="round" stroke-linejoin="round">
    <path d="M3 3v18h18"/>
    <rect x="7" y="13" width="3" height="6"/>
    <rect x="12" y="9" width="3" height="10"/>
    <rect x="17" y="5" width="3" height="14"/>
  </symbol>

  <symbol id="icon-chart-line" viewBox="0 0 24 24" fill="none" stroke="currentColor" stroke-width="2" stroke-linecap="round" stroke-linejoin="round">
    <path d="M3 3v18h18"/>
    <path d="m7 15 4-4 3 3 5-7"/>
  </symbol>

  <symbol id="icon-ruler" viewBox="0 0 24 24" fill="none" stroke="currentColor" stroke-width="2" stroke-linecap="round" stroke-linejoin="round">
    <rect x="2" y="9" width="20" height="6" rx="1"/>
    <path d="M6 9v3"/>
    <path d="M10 9v4"/>
    <path d="M14 9v3"/>
    <path d="M18 9v4"/>
  </symbol>

  <symbol id="icon-bookmark" viewBox="0 0 24 24" fill="none" stroke="currentColor" stroke-width="2" stroke-linecap="round" stroke-linejoin="round">
    <path d="M19 21 12 16l-7 5V5a2 2 0 0 1 2-2h10a2 2 0 0 1 2 2z"/>
  </symbol>

  <!-- ════════════════════════════════════════════════════════════
       EDITORIAL — direction
       Note for RTL: pick the physical-direction glyph that visually
       matches your intent. "Next" in RTL = chevron-left, "previous"
       in RTL = chevron-right. The library does NOT auto-mirror.
  ════════════════════════════════════════════════════════════ -->

  <symbol id="icon-chevron-up" viewBox="0 0 24 24" fill="none" stroke="currentColor" stroke-width="2" stroke-linecap="round" stroke-linejoin="round">
    <path d="m6 15 6-6 6 6"/>
  </symbol>

  <symbol id="icon-chevron-down" viewBox="0 0 24 24" fill="none" stroke="currentColor" stroke-width="2" stroke-linecap="round" stroke-linejoin="round">
    <path d="m6 9 6 6 6-6"/>
  </symbol>

  <symbol id="icon-chevron-left" viewBox="0 0 24 24" fill="none" stroke="currentColor" stroke-width="2" stroke-linecap="round" stroke-linejoin="round">
    <path d="m15 6-6 6 6 6"/>
  </symbol>

  <symbol id="icon-chevron-right" viewBox="0 0 24 24" fill="none" stroke="currentColor" stroke-width="2" stroke-linecap="round" stroke-linejoin="round">
    <path d="m9 6 6 6-6 6"/>
  </symbol>

  <!-- ════════════════════════════════════════════════════════════
       EDITORIAL — new icons (emoji migration batch)
  ════════════════════════════════════════════════════════════ -->

  <symbol id="icon-x-circle" viewBox="0 0 24 24" fill="none" stroke="currentColor" stroke-width="2" stroke-linecap="round" stroke-linejoin="round">
    <circle cx="12" cy="12" r="10"/>
    <path d="m15 9-6 6"/>
    <path d="m9 9 6 6"/>
  </symbol>

  <symbol id="icon-help-circle" viewBox="0 0 24 24" fill="none" stroke="currentColor" stroke-width="2" stroke-linecap="round" stroke-linejoin="round">
    <circle cx="12" cy="12" r="10"/>
    <path d="M9.1 9a3 3 0 0 1 5.8 1c0 2-3 3-3 3"/>
    <path d="M12 17h.01"/>
  </symbol>

  <symbol id="icon-heart" viewBox="0 0 24 24" fill="none" stroke="currentColor" stroke-width="2" stroke-linecap="round" stroke-linejoin="round">
    <path d="M20.8 4.6a5.5 5.5 0 0 0-7.8 0L12 5.6l-1-1A5.5 5.5 0 0 0 3.2 12.4L12 21l8.8-8.6a5.5 5.5 0 0 0 0-7.8z"/>
  </symbol>

  <symbol id="icon-scale" viewBox="0 0 24 24" fill="none" stroke="currentColor" stroke-width="2" stroke-linecap="round" stroke-linejoin="round">
    <path d="m16 16 3-8 3 8c-.87.65-1.92 1-3 1s-2.13-.35-3-1z"/>
    <path d="m2 16 3-8 3 8c-.87.65-1.92 1-3 1s-2.13-.35-3-1z"/>
    <path d="M7 21h10"/>
    <path d="M12 3v18"/>
    <path d="M3 7h2c2 0 5-1 7-2 2 1 5 2 7 2h2"/>
  </symbol>

  <symbol id="icon-gear" viewBox="0 0 24 24" fill="none" stroke="currentColor" stroke-width="2" stroke-linecap="round" stroke-linejoin="round">
    <circle cx="12" cy="12" r="3"/>
    <path d="M12 1v4"/>
    <path d="M12 19v4"/>
    <path d="m4.2 4.2 2.8 2.8"/>
    <path d="m17 17 2.8 2.8"/>
    <path d="M1 12h4"/>
    <path d="M19 12h4"/>
    <path d="m4.2 19.8 2.8-2.8"/>
    <path d="m17 7 2.8-2.8"/>
  </symbol>

  <symbol id="icon-key" viewBox="0 0 24 24" fill="none" stroke="currentColor" stroke-width="2" stroke-linecap="round" stroke-linejoin="round">
    <circle cx="7.5" cy="15.5" r="5.5"/>
    <path d="m21 2-9.6 9.6"/>
    <path d="m15.5 7.5 3 3L22 7l-3-3"/>
  </symbol>

  <symbol id="icon-lock" viewBox="0 0 24 24" fill="none" stroke="currentColor" stroke-width="2" stroke-linecap="round" stroke-linejoin="round">
    <rect x="3" y="11" width="18" height="11" rx="2"/>
    <path d="M7 11V7a5 5 0 0 1 10 0v4"/>
  </symbol>

  <symbol id="icon-diamond" viewBox="0 0 24 24" fill="none" stroke="currentColor" stroke-width="2" stroke-linecap="round" stroke-linejoin="round">
    <path d="M6 3h12l4 6-10 13L2 9z"/>
    <path d="M2 9h20"/>
    <path d="m6 3 4 6"/>
    <path d="m18 3-4 6"/>
  </symbol>

  <symbol id="icon-refresh" viewBox="0 0 24 24" fill="none" stroke="currentColor" stroke-width="2" stroke-linecap="round" stroke-linejoin="round">
    <path d="M3 12a9 9 0 1 0 9-9 9.75 9.75 0 0 0-6.74 2.74L3 8"/>
    <path d="M3 3v5h5"/>
  </symbol>

  <symbol id="icon-shield" viewBox="0 0 24 24" fill="none" stroke="currentColor" stroke-width="2" stroke-linecap="round" stroke-linejoin="round">
    <path d="M12 22s8-4 8-10V5l-8-3-8 3v7c0 6 8 10 8 10z"/>
  </symbol>

  <symbol id="icon-monitor" viewBox="0 0 24 24" fill="none" stroke="currentColor" stroke-width="2" stroke-linecap="round" stroke-linejoin="round">
    <rect x="2" y="3" width="20" height="14" rx="2"/>
    <path d="M8 21h8"/>
    <path d="M12 17v4"/>
  </symbol>

  <symbol id="icon-download" viewBox="0 0 24 24" fill="none" stroke="currentColor" stroke-width="2" stroke-linecap="round" stroke-linejoin="round">
    <path d="M21 15v4a2 2 0 0 1-2 2H5a2 2 0 0 1-2-2v-4"/>
    <path d="m7 10 5 5 5-5"/>
    <path d="M12 15V3"/>
  </symbol>

  <symbol id="icon-plus" viewBox="0 0 24 24" fill="none" stroke="currentColor" stroke-width="2" stroke-linecap="round" stroke-linejoin="round">
    <path d="M5 12h14"/>
    <path d="M12 5v14"/>
  </symbol>

  <symbol id="icon-sprout" viewBox="0 0 24 24" fill="none" stroke="currentColor" stroke-width="2" stroke-linecap="round" stroke-linejoin="round">
    <path d="M7 20h10"/>
    <path d="M10 20c5.5-2.5.8-6.4 3-10"/>
    <path d="M9.5 9.4c1.1.8 1.8 2.1 2.5 3.6-2.1.9-4.2.4-5.9-.6"/>
    <path d="M14.1 6a7 7 0 0 0-1.1 4c1.9-.1 3.3-1 4.4-2.2"/>
  </symbol>

  <symbol id="icon-microbe" viewBox="0 0 24 24" fill="none" stroke="currentColor" stroke-width="2" stroke-linecap="round" stroke-linejoin="round">
    <circle cx="12" cy="12" r="5"/>
    <path d="M12 7V4"/>
    <path d="M12 20v-3"/>
    <path d="M7 12H4"/>
    <path d="M20 12h-3"/>
    <path d="m8.5 8.5-2.1-2.1"/>
    <path d="m17.6 17.6-2.1-2.1"/>
    <path d="m15.5 8.5 2.1-2.1"/>
    <path d="m6.4 17.6 2.1-2.1"/>
  </symbol>

  <symbol id="icon-microscope" viewBox="0 0 24 24" fill="none" stroke="currentColor" stroke-width="2" stroke-linecap="round" stroke-linejoin="round">
    <path d="M6 18h8"/>
    <path d="M3 22h18"/>
    <path d="M14 22a7 7 0 1 0 0-14h-1"/>
    <path d="M9 14H4a1 1 0 0 0 0 2h1"/>
    <path d="M4 16h1"/>
    <circle cx="11" cy="8" r="2"/>
  </symbol>

  <symbol id="icon-wrench" viewBox="0 0 24 24" fill="none" stroke="currentColor" stroke-width="2" stroke-linecap="round" stroke-linejoin="round">
    <path d="M14.7 6.3a1 1 0 0 0 0 1.4l1.6 1.6a1 1 0 0 0 1.4 0l3.77-3.77a6 6 0 0 1-7.94 7.94l-6.91 6.91a2.12 2.12 0 0 1-3-3l6.91-6.91a6 6 0 0 1 7.94-7.94l-3.76 3.76z"/>
  </symbol>

  <symbol id="icon-bullet" viewBox="0 0 24 24" fill="none" stroke="currentColor" stroke-width="2" stroke-linecap="round" stroke-linejoin="round">
    <circle cx="12" cy="12" r="4"/>
  </symbol>

  <symbol id="icon-arrow-right" viewBox="0 0 24 24" fill="none" stroke="currentColor" stroke-width="2" stroke-linecap="round" stroke-linejoin="round">
    <path d="M5 12h14"/>
    <path d="m12 5 7 7-7 7"/>
  </symbol>

  <symbol id="icon-arrow-left" viewBox="0 0 24 24" fill="none" stroke="currentColor" stroke-width="2" stroke-linecap="round" stroke-linejoin="round">
    <path d="M19 12H5"/>
    <path d="m12 19-7-7 7-7"/>
  </symbol>

  <!-- ════════════════════════════════════════════════════════════
       PILLAR-PAGE ADDITIONS (2026-05-23)
       New symbols introduced for the Bonding pillar page. Lucide-style
       line-art, matching the existing sprite convention.
  ════════════════════════════════════════════════════════════ -->

  <symbol id="icon-chair" viewBox="0 0 24 24" fill="none" stroke="currentColor" stroke-width="2" stroke-linecap="round" stroke-linejoin="round">
    <path d="M19 9V6a2 2 0 0 0-2-2H7a2 2 0 0 0-2 2v3"/>
    <path d="M3 11v5a2 2 0 0 0 2 2h14a2 2 0 0 0 2-2v-5a2 2 0 0 0-4 0v2H7v-2a2 2 0 0 0-4 0z"/>
    <path d="M5 18v2"/>
    <path d="M19 18v2"/>
  </symbol>

  <symbol id="icon-meta" viewBox="0 0 24 24" fill="none" stroke="currentColor" stroke-width="2" stroke-linecap="round" stroke-linejoin="round">
    <path d="m12.83 2.18a2 2 0 0 0-1.66 0L2.6 6.08a1 1 0 0 0 0 1.83l8.58 3.91a2 2 0 0 0 1.66 0l8.58-3.9a1 1 0 0 0 0-1.83Z"/>
    <path d="m22 17.65-9.17 4.16a2 2 0 0 1-1.66 0L2 17.65"/>
    <path d="m22 12.65-9.17 4.16a2 2 0 0 1-1.66 0L2 12.65"/>
  </symbol>

  <symbol id="icon-film" viewBox="0 0 24 24" fill="none" stroke="currentColor" stroke-width="2" stroke-linecap="round" stroke-linejoin="round">
    <rect x="3" y="3" width="18" height="18" rx="2"/>
    <path d="M7 3v18"/>
    <path d="M17 3v18"/>
    <path d="M3 7.5h4"/>
    <path d="M3 12h18"/>
    <path d="M3 16.5h4"/>
    <path d="M17 7.5h4"/>
    <path d="M17 16.5h4"/>
  </symbol>

  <symbol id="icon-flask" viewBox="0 0 24 24" fill="none" stroke="currentColor" stroke-width="2" stroke-linecap="round" stroke-linejoin="round">
    <path d="M10 2v7.31"/>
    <path d="M14 9.3V1.99"/>
    <path d="M8.5 2h7"/>
    <path d="M14 9.3a6.5 6.5 0 1 1-4 0"/>
    <path d="M5.58 16.5h12.85"/>
  </symbol>

  <symbol id="icon-compass" viewBox="0 0 24 24" fill="none" stroke="currentColor" stroke-width="2" stroke-linecap="round" stroke-linejoin="round">
    <circle cx="12" cy="12" r="10"/>
    <path d="m16.24 7.76-2.12 6.36-6.36 2.12 2.12-6.36 6.36-2.12z"/>
  </symbol>

  <symbol id="icon-crown" viewBox="0 0 24 24" fill="none" stroke="currentColor" stroke-width="2" stroke-linecap="round" stroke-linejoin="round">
    <path d="m2 4 3 12h14l3-12-6 7-4-7-4 7-6-7z"/>
    <path d="M5 21h14"/>
  </symbol>

  <symbol id="icon-implant" viewBox="0 0 24 24" fill="none" stroke="currentColor" stroke-width="2" stroke-linecap="round" stroke-linejoin="round">
    <path d="M9.5 3.5h5v3.5h-5z"/>
    <path d="M8 7h8l-2 12-2 2-2-2z"/>
    <path d="M9.3 11h5.4"/>
    <path d="M9.7 14.5h4.6"/>
    <path d="M10.4 18h3.2"/>
  </symbol>

</svg>
